<?xml version="1.0" standalone="no"?>
<!DOCTYPE svg PUBLIC "-//W3C//DTD SVG 20010904//EN"
 "http://www.w3.org/TR/2001/REC-SVG-20010904/DTD/svg10.dtd">
<svg version="1.0" xmlns="http://www.w3.org/2000/svg"
 width="260.000000pt" height="260.000000pt" viewBox="0 0 260.000000 260.000000"
 preserveAspectRatio="xMidYMid meet">
<metadata>
Created by potrace 1.14, written by Peter Selinger 2001-2017
</metadata>
<g transform="translate(0.000000,260.000000) scale(0.100000,-0.100000)"
fill="#000000" stroke="none">
<path d="M1742 2121 c-8 -4 -27 -7 -43 -6 -16 1 -29 -1 -29 -5 0 -4 -13 -10
-29 -13 -62 -13 -175 -75 -235 -129 -17 -16 -34 -28 -39 -28 -4 0 -6 -4 -2 -9
3 -6 -3 -15 -14 -20 -11 -6 -23 -20 -26 -31 -4 -11 -25 -30 -47 -41 -22 -11
-37 -15 -33 -8 6 8 4 10 -6 3 -15 -9 -29 -13 -69 -18 -14 -2 -36 -8 -50 -14
-14 -5 -31 -7 -37 -5 -7 3 -13 1 -13 -4 0 -8 -15 -12 -57 -15 -7 -1 -13 -4
-13 -8 0 -4 -6 -7 -12 -8 -25 -2 -48 -8 -54 -15 -4 -4 -14 -7 -22 -7 -8 0 -28
-6 -45 -14 -34 -15 -108 -48 -117 -51 -3 -1 -18 -8 -35 -15 -16 -7 -33 -13
-37 -12 -5 1 -8 -2 -8 -7 0 -5 -11 -12 -25 -15 -14 -4 -25 -11 -25 -17 0 -6
-4 -7 -10 -4 -5 3 -10 2 -10 -4 0 -6 -7 -8 -15 -5 -8 4 -15 2 -15 -4 0 -6 -16
-16 -35 -22 -19 -6 -35 -16 -35 -21 0 -5 -5 -9 -10 -9 -6 0 -35 -16 -65 -35
-30 -19 -55 -31 -55 -27 0 4 -4 2 -8 -3 -4 -6 -23 -22 -42 -35 -19 -13 -38
-30 -43 -37 -4 -7 -15 -9 -24 -6 -11 4 -14 2 -9 -5 4 -6 -4 -17 -17 -24 -52
-29 -147 -114 -147 -132 0 -15 3 -16 14 -7 10 8 15 9 18 1 2 -6 42 -13 92 -16
49 -3 99 -9 112 -14 16 -6 24 -6 24 1 0 6 4 7 10 4 13 -8 48 -16 82 -18 15 -1
30 -6 34 -10 4 -4 19 -7 34 -7 15 0 30 -3 34 -7 8 -8 32 -14 68 -16 16 -1 28
-5 28 -8 0 -7 31 -19 70 -26 14 -2 29 -8 35 -14 5 -5 17 -9 27 -9 10 0 18 -5
18 -12 0 -6 3 -8 6 -5 4 4 19 0 33 -7 14 -8 62 -31 106 -52 71 -35 202 -117
215 -135 3 -4 11 -9 19 -11 8 -2 34 -23 58 -48 23 -25 43 -41 43 -37 0 4 15
-9 33 -30 17 -21 46 -53 62 -72 17 -18 29 -37 28 -42 -7 -25 33 -3 75 39 l48
49 27 -30 c15 -16 27 -26 27 -21 0 4 6 0 13 -10 17 -23 13 -92 -7 -131 -8 -16
-14 -30 -13 -31 1 0 43 -23 92 -49 50 -26 93 -53 97 -59 4 -6 8 -8 8 -3 0 4
18 -4 40 -18 44 -28 100 -43 100 -28 0 5 10 9 23 8 12 -1 27 0 32 4 11 6 133
41 153 43 6 1 12 7 12 15 0 7 4 13 9 13 5 0 12 13 16 30 4 16 11 30 16 30 6 0
7 5 4 10 -3 6 -2 10 2 10 7 0 30 49 38 80 1 3 7 18 13 33 7 16 12 35 12 43 0
8 5 14 11 14 5 0 8 4 5 9 -4 5 -1 22 5 38 6 15 12 38 14 50 1 12 10 32 19 45
9 13 27 38 41 56 18 25 23 45 23 85 -1 29 -4 57 -7 62 -14 26 -7 57 15 68 13
5 24 14 24 19 0 4 5 8 12 8 17 0 85 77 107 122 10 21 22 34 26 30 5 -4 5 -2 1
5 -3 6 0 29 8 50 30 78 35 166 16 258 -6 28 -11 58 -11 68 0 9 -4 17 -8 17 -4
0 -13 23 -20 50 -7 28 -17 50 -22 50 -5 0 -9 6 -9 13 0 7 -9 23 -19 34 -11 12
-17 24 -14 27 4 3 0 6 -7 6 -7 0 -11 3 -7 6 12 13 -193 195 -214 190 -4 0 -16
7 -27 17 -12 11 -26 16 -31 12 -6 -3 -11 -2 -11 2 0 8 -65 30 -120 41 -50 9
-265 12 -278 3z"/>
</g>
</svg>
